<svg id="Layer_1" data-name="Layer 1" xmlns="http://www.w3.org/2000/svg" viewBox="0 0 72 96"><defs><style>.cls-1{fill:#fff;}</style></defs><title>hit</title><path class="cls-1" d="M70,96A11.9,11.9,0,0,1,58,84.23V43.64a2,2,0,0,1,1.43-1.88,2,2,0,0,1,2.24.79A10,10,0,0,0,70,47a9.91,9.91,0,0,0,10-9.81,9.77,9.77,0,0,0-4.35-8.09,2,2,0,0,1-.72-2.37A13.38,13.38,0,0,0,76,21.44,13.88,13.88,0,0,0,62,7.7a14.49,14.49,0,0,0-4,.66,2,2,0,0,1-2-.5,14.43,14.43,0,0,0-19.26-.53,2,2,0,0,1-1.51.5l-.6-.08a5.44,5.44,0,0,0-.58,0A13.88,13.88,0,0,0,20,21.43a13.43,13.43,0,0,0,1.07,5.25A1.93,1.93,0,0,1,20.35,29,9.76,9.76,0,0,0,16,37.13a10,10,0,0,0,18.33,5.41,2,2,0,0,1,2.25-.8A2,2,0,0,1,38,43.62V84.23A11.9,11.9,0,0,1,26,96a2,2,0,1,1,0-3.92,7.93,7.93,0,0,0,8-7.85V48.41a14.09,14.09,0,0,1-8,2.47A13.88,13.88,0,0,1,12,37.14a13.6,13.6,0,0,1,4.84-10.37A17.2,17.2,0,0,1,16,21.45,17.85,17.85,0,0,1,34,3.8c.25,0,.49,0,.72,0a18.57,18.57,0,0,1,23.21.48A17,17,0,0,1,62,3.8,17.85,17.85,0,0,1,80,21.45a16.91,16.91,0,0,1-.84,5.32A13.59,13.59,0,0,1,84,37.14,13.88,13.88,0,0,1,70,50.88a14.09,14.09,0,0,1-8-2.47V84.23a7.93,7.93,0,0,0,8,7.85A2,2,0,1,1,70,96Z" transform="translate(-12 0)"/><path class="cls-1" d="M52,82.27a2,2,0,0,1-2-2V48.92a2,2,0,0,1,4,0V80.3A2,2,0,0,1,52,82.27Z" transform="translate(-12 0)"/><path class="cls-1" d="M26,23.41a2,2,0,0,1-2-2,9.92,9.92,0,0,1,10-9.81,2,2,0,1,1,0,3.93,6,6,0,0,0-6,5.88A2,2,0,0,1,26,23.41Z" transform="translate(-12 0)"/><path class="cls-1" d="M70,43a2,2,0,1,1,0-3.92,2,2,0,0,0,2-2,2,2,0,0,1,4,0A6,6,0,0,1,70,43Z" transform="translate(-12 0)"/></svg>