<svg id="Layer_1" data-name="Layer 1" xmlns="http://www.w3.org/2000/svg" viewBox="0 0 63.33 35.83"><defs><style>.cls-1{fill:#fff;}</style></defs><title>missed</title><path class="cls-1" d="M2.33,17.58c1.32,0,2,.87,3.09,2.39S8,23.62,11,23.62s4.37-2,5.53-3.65,1.77-2.39,3.08-2.39,2,.87,3.09,2.39,2.6,3.65,5.53,3.65,4.37-2,5.53-3.65,1.77-2.39,3.09-2.39,2,.87,3.09,2.39,2.6,3.65,5.53,3.65,4.37-2,5.53-3.65,1.77-2.39,3.09-2.39,2,.87,3.09,2.39,2.61,3.65,5.54,3.65a1.5,1.5,0,0,0,0-3c-1.32,0-2-.87-3.09-2.39S57,14.58,54,14.58s-4.37,2-5.53,3.65-1.77,2.38-3.09,2.38-2-.86-3.09-2.38-2.6-3.65-5.53-3.65-4.37,2-5.53,3.65-1.77,2.39-3.09,2.39-2-.87-3.09-2.39-2.6-3.65-5.53-3.65-4.36,2-5.52,3.65S12.27,20.62,11,20.62s-2-.87-3.09-2.39-2.6-3.65-5.53-3.65a1.5,1.5,0,1,0,0,3Z" transform="translate(-0.83 -14.58)"/><path class="cls-1" d="M62.67,34c-1.32,0-2-.87-3.09-2.39S57,28,54,28s-4.37,2-5.53,3.65S46.74,34,45.42,34s-2-.86-3.09-2.38S39.73,28,36.8,28s-4.37,2-5.53,3.65S29.5,34,28.18,34s-2-.86-3.09-2.38S22.49,28,19.56,28,15.2,30,14,31.63,12.27,34,11,34s-2-.86-3.09-2.38S5.26,28,2.33,28a1.5,1.5,0,0,0,0,3c1.32,0,2,.86,3.09,2.39S8,37,11,37s4.37-2,5.53-3.65S18.25,31,19.56,31s2,.86,3.09,2.39S25.26,37,28.18,37s4.38-2,5.54-3.65S35.49,31,36.8,31s2,.86,3.09,2.39S42.5,37,45.42,37s4.37-2,5.53-3.65S52.73,31,54.05,31s2,.86,3.09,2.39S59.74,37,62.67,37a1.5,1.5,0,0,0,0-3Z" transform="translate(-0.83 -14.58)"/><path class="cls-1" d="M62.67,47.42c-1.32,0-2-.87-3.09-2.39S57,41.38,54,41.38s-4.37,2-5.53,3.65-1.77,2.39-3.09,2.39-2-.87-3.09-2.39-2.6-3.65-5.53-3.65-4.37,2-5.53,3.65-1.77,2.39-3.09,2.39-2-.87-3.09-2.39-2.6-3.65-5.53-3.65S15.2,43.4,14,45,12.27,47.42,11,47.42,9,46.55,7.86,45s-2.6-3.65-5.53-3.65a1.5,1.5,0,1,0,0,3c1.32,0,2,.86,3.09,2.39S8,50.42,11,50.42s4.37-2,5.53-3.65,1.77-2.39,3.08-2.39,2,.86,3.09,2.39,2.61,3.65,5.53,3.65,4.38-2,5.54-3.65,1.77-2.39,3.08-2.39,2,.86,3.09,2.39,2.61,3.65,5.53,3.65,4.37-2,5.53-3.65,1.78-2.39,3.1-2.39,2,.86,3.09,2.39,2.6,3.65,5.53,3.65a1.5,1.5,0,0,0,0-3Z" transform="translate(-0.83 -14.58)"/></svg>