<svg id="Layer_1" data-name="Layer 1" xmlns="http://www.w3.org/2000/svg" viewBox="0 0 78.75 85.27"><defs><style>.cls-1{fill:#fff;}</style></defs><title>ship</title><polygon class="cls-1" points="60.47 31.94 60.47 15.47 54.84 15.47 54.84 9.84 42.19 9.84 42.19 0 36.56 0 36.56 9.84 23.91 9.84 23.91 15.47 18.28 15.47 18.28 31.94 39.38 27.42 60.47 31.94"/><path class="cls-1" d="M75.93,86.12h0a6.08,6.08,0,0,1-3.15,1.22c-1.22.08-2.52-.87-3.9-2.25-.47-.46-.94-1-1.41-1.37l10.67-25L89.38,46.07,50,37.62,10.63,46.05,21.88,58.7,32.51,83.51a12,12,0,0,0-1.59,1.56h0a5,5,0,0,1-3.16,1.74c-1.2.09-2.52-.6-3.9-2-2.58-2.58-5.38-3.79-8.26-3.62a9.75,9.75,0,0,0-5,1.83V89.6a2.85,2.85,0,0,0,2.21-1A5,5,0,0,1,16,86.82c1.24,0,2.52.61,3.9,2,2.42,2.41,5,3.64,7.71,3.64.18,0,.37.17.56.16,4.21-.27,6.84-2.27,7.17-3.68h0A5,5,0,0,1,38.48,87a5.31,5.31,0,0,1,3.9,1.9,10.81,10.81,0,0,0,7.7,3.59c.19,0,.38.15.57.15,4.21-.27,6.84-2.3,7.17-3.71h0A5,5,0,0,1,61,87a5.29,5.29,0,0,1,3.9,1.89,10.8,10.8,0,0,0,7.7,3.59c.19,0,.38.16.56.15,4.22-.27,6.84-2.3,7.18-3.71h0A5,5,0,0,1,83.48,87a5.29,5.29,0,0,1,3.9,1.89,15,15,0,0,0,2,1.6V83.15a9.21,9.21,0,0,0-6.27-1.41C78.89,82,76.26,84.71,75.93,86.12Z" transform="translate(-10.62 -7.37)"/></svg>